<?xml version="1.0" encoding="utf-8"?>
<!-- Generator: Adobe Illustrator 28.0.0, SVG Export Plug-In . SVG Version: 6.00 Build 0)  -->
<svg version="1.1" id="Layer_1" xmlns="http://www.w3.org/2000/svg" xmlns:xlink="http://www.w3.org/1999/xlink" x="0px" y="0px"
	 viewBox="0 0 792 612" style="enable-background:new 0 0 792 612;" xml:space="preserve">
<style type="text/css">
	.st0{fill-rule:evenodd;clip-rule:evenodd;fill:#676767;}
	.st1{fill-rule:evenodd;clip-rule:evenodd;fill:#9ACA3C;}
	.st2{fill-rule:evenodd;clip-rule:evenodd;fill:#595A5C;}
	.st3{fill:none;stroke:#595A5C;stroke-width:0.216;stroke-miterlimit:2.6131;}
	.st4{fill:#A6CE38;}
	.st5{fill:none;stroke:#A6CE38;stroke-width:2.9999;stroke-miterlimit:2.6131;}
	.st6{fill:#595A5C;}
	.st7{fill:none;stroke:#595A5C;stroke-width:1.5001;stroke-miterlimit:2.6131;}
</style>
<path class="st0" d="M175,249c1.5,27.4-13.3,92-19.7,118.5c-9.4,38.8-21.2,71.2-37.8,102.6l2.4,0.4c24.3-19,46.4-96.6,53.3-128.5
	c2.3-10.8,6.9-45,9.8-51.7c15.9,43.2,12.9,110.2-8.8,146.4c-11.4,18.9-24.4,31.2-42.2,43.1c-12,8-46,24.1-62.7,24l4.5,2
	c26.5,0.5,62-15.3,78.5-27.4c65.1-47.4,65.8-123.8,41.9-195.8c-3.5-10.6-13.4-29.7-15.4-37.9c-0.3,0.3-0.8,0.8-1,1
	c-0.2,0.2-0.8,0.8-1,1C176.5,247.1,175.3,248.5,175,249"/>
<path class="st1" d="M62.3,538l5.7,0c12.4,0.1,31.4-4.4,46.2-5.2c16.9-0.9,32.8-1.2,49.7-0.3c33.2,1.6,57.4,8.3,87.3,14.2l-0.2-2
	c-8.2-2.4-18.4-8.2-28.3-11.4c-40.9-13.3-64.8-9.6-105.1-12.3c20.7-5.5,89.7-34.2,108.4-17.6c-0.7,8.6-5.2,12.5-9.6,16.4
	c5.6-0.3,13.1-5.2,17.1-8.6c5-4.2,8.4-8.7,7.4-18.4c-36.7-27.3-124.6,14.7-160.6,34.3L66.6,535c-0.3,0.2-0.8,0.5-1.1,0.7L62.3,538z"
	/>
<rect x="261.3" y="503.9" class="st2" width="444.5" height="4.4"/>
<rect x="261.3" y="503.9" class="st3" width="444.5" height="4.4"/>
<path class="st4" d="M662.4,418.2v41.6c2.2-1.9,5.1-3.4,8.6-4.5c3.5-1,7.3-1.6,11.4-1.6c7,0,12.1,1.3,15.5,3.8c3.3,2.5,5,6.5,5,11.8
	v23.4l-11.2,0.9v-23.5c0-3.4-1.1-6-3.4-7.7c-2.2-1.7-5.7-2.5-10.3-2.5c-4.7,0-8.4,1-11.3,3.1c-2.9,2.1-4.3,4.9-4.3,8.2v21.4l-11,0.9
	v-74.5L662.4,418.2z M620.1,439.9v14.7h16.2v6.2h-16.2v16.8c0,4,0.7,6.6,2.1,7.9s4.1,1.9,8,1.9h2.3c1.2,0,2.1,0,2.7,0
	c0.6,0,1.2-0.1,1.7-0.1l-0.5,6.3c-0.6,0.1-1.3,0.1-2.1,0.1c-0.8,0-2,0-3.7,0c-8.6,0-14.3-0.9-17.2-2.8c-2.8-1.9-4.3-6-4.3-12.4
	v-17.8h-6.3l0.7-6.2h5.6v-11.7L620.1,439.9z M586.8,418.2v74.3l-11.2,0.9v-6.8c-3,2.4-6.6,4.2-10.8,5.5s-8.8,1.9-13.7,1.9
	c-9.1,0-16.9-2-23.5-5.9c-6.5-4-9.7-8.7-9.7-14.3c0-5.6,3.3-10.3,9.9-14.3c6.6-4,14.6-5.9,24-5.9c5.1,0,9.6,0.6,13.8,1.9
	c4.1,1.2,7.5,3,10.1,5.3v-41.5L586.8,418.2z M552.6,459.7c-6.5,0-12.1,1.4-16.6,4.1c-4.5,2.8-6.8,6.1-6.8,10c0,3.9,2.2,7.2,6.7,10
	c4.5,2.8,9.9,4.2,16.3,4.2c6.6,0,12.2-1.4,16.7-4.1c4.6-2.8,6.8-6.1,6.8-10c0-4-2.2-7.4-6.7-10.1
	C564.6,461.1,559.2,459.7,552.6,459.7z M503.4,465.5v27l-10.1,1.1v-4.8c-2,1.7-4.5,3-7.4,3.9c-2.9,0.9-6.2,1.4-9.8,1.4
	c-6.3,0-11.6-1.3-15.8-3.8c-4.2-2.5-6.2-5.8-6.2-9.7c0-3.8,2.2-7,6.5-9.5c4.3-2.5,9.9-3.8,16.7-3.8c3.3,0,6.2,0.4,8.8,1.2
	c2.6,0.8,4.9,1.9,6.7,3.4v-5.8c0-2.2-1-3.8-3-4.7c-2.1-0.9-5.6-1.4-10.5-1.4c-2.1,0-4.3,0.1-6.6,0.2c-2.3,0.1-4.6,0.4-7,0.7l2.6-6.3
	c3.2-0.2,6-0.3,8.2-0.4c2.3-0.1,4.2-0.1,5.8-0.1c8,0,13.6,0.8,16.6,2.4C501.9,457.9,503.4,460.9,503.4,465.5z M478.8,472.4
	c-3.9,0-7.2,0.8-10.1,2.4c-2.8,1.6-4.2,3.5-4.2,5.6c0,2.3,1.4,4.2,4.1,5.8s6.1,2.4,10.2,2.4s7.4-0.8,10.1-2.4c2.7-1.6,4-3.5,4-5.8
	c0-2.2-1.4-4.1-4.1-5.7C486.1,473.1,482.8,472.4,478.8,472.4z M433.6,462.3c-2-1.1-4.2-2-6.6-2.5c-2.4-0.5-5.1-0.8-8-0.8
	c-6.4,0-11.8,1.3-16.3,4c-4.5,2.7-6.8,5.9-6.8,9.8c0,0.7,0.2,1.6,0.6,3c0.1,0.1,0.1,0.2,0.1,0.3L433.6,462.3z M447.9,463.1
	l-48.1,17.6c2.1,2.2,4.8,3.9,8.1,5.1c3.3,1.2,7,1.8,11.1,1.8c3.9,0,7.4-0.4,10.8-1.1c3.4-0.8,6.6-1.9,9.7-3.4l2.8,5.9
	c-3.2,1.6-6.8,2.9-10.9,3.8c-4.1,0.9-8.3,1.3-12.6,1.3c-9.1,0-16.9-2-23.2-6c-6.4-4-9.5-8.8-9.5-14.4c0-5.8,3.2-10.6,9.7-14.5
	c6.4-3.9,14.4-5.8,23.8-5.8c5.6,0,10.7,0.8,15.4,2.4C439.5,457.4,443.9,459.8,447.9,463.1z M378.5,454v6.9h-2.6c-4.8,0-8.5,1-11.1,3
	c-2.6,2-3.9,4.9-3.9,8.7v20.2l-11,0.9v-38.4l11-0.9v6c2.1-2.1,4.6-3.7,7.6-4.8C371.6,454.5,374.9,454,378.5,454z M277.4,418.2v42.5
	c2.8-2.3,6.3-4,10.5-5.3c4.2-1.2,8.8-1.9,13.6-1.9c9.3,0,17.2,2,23.6,5.9c6.4,4,9.6,8.8,9.6,14.5s-3.3,10.4-9.9,14.2
	c-6.6,3.8-14.9,5.7-25,5.7c-5.5,0-10.6-0.7-15.2-2c-4.6-1.4-8.5-3.2-11.6-5.7c-2.4-2-4.2-4.1-5.2-6.5c-1-2.4-1.6-6-1.6-11v-1v-48.5
	L277.4,418.2z M300.6,459.6c-6.5,0-12,1.4-16.6,4.1c-4.5,2.7-6.8,6.1-6.8,10.1c0,3.9,2.3,7.3,6.8,10c4.5,2.8,10.1,4.1,16.6,4.1
	c6.5,0,12-1.4,16.5-4.1c4.5-2.7,6.7-6,6.7-9.9c0-4-2.3-7.4-6.8-10.2C312.5,461,307,459.6,300.6,459.6z"/>
<path class="st5" d="M662.4,418.2v41.6c2.2-1.9,5.1-3.4,8.6-4.5c3.5-1,7.3-1.6,11.4-1.6c7,0,12.1,1.3,15.5,3.8c3.3,2.5,5,6.5,5,11.8
	v23.4l-11.2,0.9v-23.5c0-3.4-1.1-6-3.4-7.7c-2.2-1.7-5.7-2.5-10.3-2.5c-4.7,0-8.4,1-11.3,3.1c-2.9,2.1-4.3,4.9-4.3,8.2v21.4l-11,0.9
	v-74.5L662.4,418.2z M620.1,439.9v14.7h16.2v6.2h-16.2v16.8c0,4,0.7,6.6,2.1,7.9s4.1,1.9,8,1.9h2.3c1.2,0,2.1,0,2.7,0
	c0.6,0,1.2-0.1,1.7-0.1l-0.5,6.3c-0.6,0.1-1.3,0.1-2.1,0.1c-0.8,0-2,0-3.7,0c-8.6,0-14.3-0.9-17.2-2.8c-2.8-1.9-4.3-6-4.3-12.4
	v-17.8h-6.3l0.7-6.2h5.6v-11.7L620.1,439.9z M586.8,418.2v74.3l-11.2,0.9v-6.8c-3,2.4-6.6,4.2-10.8,5.5s-8.8,1.9-13.7,1.9
	c-9.1,0-16.9-2-23.5-5.9c-6.5-4-9.7-8.7-9.7-14.3c0-5.6,3.3-10.3,9.9-14.3c6.6-4,14.6-5.9,24-5.9c5.1,0,9.6,0.6,13.8,1.9
	c4.1,1.2,7.5,3,10.1,5.3v-41.5L586.8,418.2z M552.6,459.7c-6.5,0-12.1,1.4-16.6,4.1c-4.5,2.8-6.8,6.1-6.8,10c0,3.9,2.2,7.2,6.7,10
	c4.5,2.8,9.9,4.2,16.3,4.2c6.6,0,12.2-1.4,16.7-4.1c4.6-2.8,6.8-6.1,6.8-10c0-4-2.2-7.4-6.7-10.1
	C564.6,461.1,559.2,459.7,552.6,459.7z M503.4,465.5v27l-10.1,1.1v-4.8c-2,1.7-4.5,3-7.4,3.9c-2.9,0.9-6.2,1.4-9.8,1.4
	c-6.3,0-11.6-1.3-15.8-3.8c-4.2-2.5-6.2-5.8-6.2-9.7c0-3.8,2.2-7,6.5-9.5c4.3-2.5,9.9-3.8,16.7-3.8c3.3,0,6.2,0.4,8.8,1.2
	c2.6,0.8,4.9,1.9,6.7,3.4v-5.8c0-2.2-1-3.8-3-4.7c-2.1-0.9-5.6-1.4-10.5-1.4c-2.1,0-4.3,0.1-6.6,0.2c-2.3,0.1-4.6,0.4-7,0.7l2.6-6.3
	c3.2-0.2,6-0.3,8.2-0.4c2.3-0.1,4.2-0.1,5.8-0.1c8,0,13.6,0.8,16.6,2.4C501.9,457.9,503.4,460.9,503.4,465.5z M478.8,472.4
	c-3.9,0-7.2,0.8-10.1,2.4c-2.8,1.6-4.2,3.5-4.2,5.6c0,2.3,1.4,4.2,4.1,5.8s6.1,2.4,10.2,2.4s7.4-0.8,10.1-2.4c2.7-1.6,4-3.5,4-5.8
	c0-2.2-1.4-4.1-4.1-5.7C486.1,473.1,482.8,472.4,478.8,472.4z M433.6,462.3c-2-1.1-4.2-2-6.6-2.5c-2.4-0.5-5.1-0.8-8-0.8
	c-6.4,0-11.8,1.3-16.3,4c-4.5,2.7-6.8,5.9-6.8,9.8c0,0.7,0.2,1.6,0.6,3c0.1,0.1,0.1,0.2,0.1,0.3L433.6,462.3z M447.9,463.1
	l-48.1,17.6c2.1,2.2,4.8,3.9,8.1,5.1c3.3,1.2,7,1.8,11.1,1.8c3.9,0,7.4-0.4,10.8-1.1c3.4-0.8,6.6-1.9,9.7-3.4l2.8,5.9
	c-3.2,1.6-6.8,2.9-10.9,3.8c-4.1,0.9-8.3,1.3-12.6,1.3c-9.1,0-16.9-2-23.2-6c-6.4-4-9.5-8.8-9.5-14.4c0-5.8,3.2-10.6,9.7-14.5
	c6.4-3.9,14.4-5.8,23.8-5.8c5.6,0,10.7,0.8,15.4,2.4C439.5,457.4,443.9,459.8,447.9,463.1z M378.5,454v6.9h-2.6c-4.8,0-8.5,1-11.1,3
	c-2.6,2-3.9,4.9-3.9,8.7v20.2l-11,0.9v-38.4l11-0.9v6c2.1-2.1,4.6-3.7,7.6-4.8C371.6,454.5,374.9,454,378.5,454z M277.4,418.2v42.5
	c2.8-2.3,6.3-4,10.5-5.3c4.2-1.2,8.8-1.9,13.6-1.9c9.3,0,17.2,2,23.6,5.9c6.4,4,9.6,8.8,9.6,14.5s-3.3,10.4-9.9,14.2
	c-6.6,3.8-14.9,5.7-25,5.7c-5.5,0-10.6-0.7-15.2-2c-4.6-1.4-8.5-3.2-11.6-5.7c-2.4-2-4.2-4.1-5.2-6.5c-1-2.4-1.6-6-1.6-11v-1v-48.5
	L277.4,418.2z M300.6,459.6c-6.5,0-12,1.4-16.6,4.1c-4.5,2.7-6.8,6.1-6.8,10.1c0,3.9,2.3,7.3,6.8,10c4.5,2.8,10.1,4.1,16.6,4.1
	c6.5,0,12-1.4,16.5-4.1c4.5-2.7,6.7-6,6.7-9.9c0-4-2.3-7.4-6.8-10.2C312.5,461,307,459.6,300.6,459.6z"/>
<path class="st6" d="M696,543.4v-4.9h8.7v4.9H696z M689.5,530.3l-8.5,0.9c-0.3-1-0.9-1.7-2-2.2c-1-0.5-2.3-0.7-4-0.7
	c-2.2,0-3.9,0.4-5.2,1.3c-1.3,0.8-1.9,2.3-1.9,4.2c0,2.2,0.7,3.8,2,4.7s3.1,1.4,5.2,1.4c1.6,0,3-0.3,4-0.8c1-0.5,1.8-1.4,2.2-2.8
	l8.5,0.8c-0.9,2.2-2.6,3.9-5.1,5s-5.9,1.7-10.1,1.7c-4.8,0-8.6-0.9-11.5-2.6c-2.9-1.7-4.3-4.1-4.3-7.1c0-3.1,1.4-5.5,4.3-7.2
	c2.9-1.7,6.7-2.6,11.6-2.6c4,0,7.2,0.5,9.5,1.5C686.8,526.8,688.5,528.3,689.5,530.3z M652.1,543.4h-8.7v-9.5c0-2-0.2-3.3-0.6-3.9
	c-0.4-0.6-1-1-1.8-1.4s-1.8-0.5-3-0.5c-1.5,0-2.9,0.2-4.1,0.7c-1.2,0.5-2,1.1-2.5,1.8c-0.5,0.8-0.7,2.2-0.7,4.3v8.4h-8.7v-18.6h8
	v2.7c2.9-2.1,6.5-3.1,10.9-3.1c1.9,0,3.7,0.2,5.3,0.6c1.6,0.4,2.8,0.9,3.6,1.5c0.8,0.6,1.4,1.3,1.7,2.1c0.3,0.8,0.5,1.9,0.5,3.3
	L652.1,543.4L652.1,543.4z M604.7,543.4v-18.6h8.7v18.6H604.7z M604.7,522.3v-4.5h8.7v4.5H604.7z M555.5,533.7c0,2,0.7,3.4,2,4.3
	c1.3,0.9,3,1.4,5,1.4c2.1,0,3.9-0.5,5.3-1.4c1.5-0.9,2.2-2.3,2.2-4.2c0-1.9-0.7-3.3-2.1-4.3c-1.4-0.9-3.2-1.4-5.3-1.4
	c-2.1,0-3.8,0.5-5.1,1.4C556.2,530.5,555.5,531.8,555.5,533.7z M547.7,544.6l9.9,0.7c0.2,0.7,0.5,1.1,1.1,1.4
	c0.8,0.3,2.1,0.5,3.9,0.5c2.3,0,4-0.2,5.1-0.6c0.8-0.3,1.3-0.7,1.7-1.2c0.3-0.4,0.4-1.2,0.4-2.3l0-2.7c-2.6,2-5.9,3-9.9,3
	c-4.4,0-7.9-1.1-10.5-3.2c-2-1.7-3-3.7-3-6.2c0-3.1,1.3-5.5,4-7.1c2.6-1.6,5.9-2.5,9.9-2.5c4.1,0,7.4,1,10,3v-2.6h8.1v16.7
	c0,2.2-0.3,3.8-1,4.9c-0.6,1.1-1.5,1.9-2.7,2.5c-1.2,0.6-2.7,1.1-4.6,1.5c-1.9,0.3-4.4,0.5-7.3,0.5c-5.6,0-9.5-0.5-11.8-1.6
	c-2.3-1.1-3.5-2.5-3.5-4.1C547.7,545,547.7,544.8,547.7,544.6z M539.8,543.4h-8.7v-9.5c0-2-0.2-3.3-0.6-3.9c-0.4-0.6-1-1-1.8-1.4
	s-1.8-0.5-3-0.5c-1.5,0-2.9,0.2-4.1,0.7c-1.2,0.5-2,1.1-2.5,1.8c-0.5,0.8-0.7,2.2-0.7,4.3v8.4h-8.7v-18.6h8v2.7
	c2.9-2.1,6.5-3.1,10.9-3.1c1.9,0,3.7,0.2,5.3,0.6c1.6,0.4,2.8,0.9,3.6,1.5c0.8,0.6,1.4,1.3,1.7,2.1c0.3,0.8,0.5,1.9,0.5,3.3V543.4z
	 M492.4,543.4v-18.6h8.7v18.6H492.4z M492.4,522.3v-4.5h8.7v4.5H492.4z M486.3,524.8v3.9h-5.9v7.5c0,1.5,0,2.4,0.2,2.7
	c0.1,0.2,0.4,0.5,0.8,0.6c0.4,0.2,0.9,0.2,1.5,0.2c0.8,0,2-0.2,3.5-0.5l0.7,3.8c-2,0.5-4.3,0.7-6.8,0.7c-1.6,0-3-0.2-4.2-0.5
	s-2.2-0.7-2.8-1.2c-0.6-0.5-1-1.1-1.2-1.9c-0.2-0.6-0.3-1.7-0.3-3.5v-8.1h-4v-3.9h4v-3.7l8.7-2.9v6.6L486.3,524.8L486.3,524.8z
	 M453.8,543.4v-25.6h8.7v25.6H453.8z M436.8,543.4v-2.8c-1.2,1-2.8,1.8-4.7,2.4c-2,0.6-4,0.9-6.2,0.9c-2.2,0-4.2-0.3-5.9-0.8
	c-1.8-0.5-3-1.3-3.8-2.3c-0.8-1-1.2-2.4-1.2-4.1v-11.8h8.7v8.6c0,2.6,0.2,4.2,0.5,4.8s0.9,1.1,1.8,1.4c0.8,0.3,1.9,0.5,3.2,0.5
	c1.5,0,2.8-0.2,4-0.7s2-1,2.4-1.7c0.4-0.7,0.6-2.4,0.6-5v-7.8h8.7v18.6L436.8,543.4L436.8,543.4z M376.9,538.2l8.7-0.8
	c0.4,1,1.1,1.7,2.2,2.2c1.1,0.5,2.7,0.7,4.8,0.7c2.2,0,3.9-0.2,5.1-0.7c0.8-0.3,1.1-0.8,1.1-1.3c0-0.4-0.2-0.7-0.6-0.9
	c-0.4-0.2-1.4-0.5-2.9-0.7c-7-0.9-11.4-1.7-13.3-2.4c-2.6-1-3.9-2.4-3.9-4.2c0-1.6,1.1-3,3.4-4.1c2.2-1.1,5.7-1.7,10.4-1.7
	c4.5,0,7.8,0.4,10,1.2c2.2,0.8,3.7,2.1,4.5,3.7l-8.1,0.9c-0.4-0.7-1-1.3-2-1.7s-2.4-0.6-4.2-0.6c-2.3,0-3.9,0.2-4.9,0.5
	c-0.7,0.3-1,0.6-1,1c0,0.3,0.3,0.7,0.9,0.9c0.8,0.3,3.5,0.8,8.1,1.4c4.6,0.6,7.9,1.3,9.7,2.2c1.8,0.9,2.7,2.1,2.7,3.7
	c0,1.7-1.2,3.2-3.8,4.4c-2.5,1.2-6.2,1.8-11.2,1.8c-4.5,0-8-0.5-10.6-1.5C379.4,541.3,377.7,539.9,376.9,538.2z M371.2,543.4h-8.7
	v-9.5c0-2-0.2-3.3-0.6-3.9c-0.4-0.6-1-1-1.8-1.4s-1.9-0.5-3-0.5c-1.5,0-2.9,0.2-4.1,0.7c-1.2,0.5-2,1.1-2.5,1.8
	c-0.5,0.8-0.7,2.2-0.7,4.3v8.4h-8.7v-18.6h8v2.7c2.9-2.1,6.5-3.1,10.9-3.1c1.9,0,3.7,0.2,5.3,0.6c1.6,0.4,2.8,0.9,3.6,1.5
	c0.8,0.6,1.4,1.3,1.7,2.1c0.3,0.8,0.5,1.9,0.5,3.3L371.2,543.4L371.2,543.4z M309.6,534.1c0,1.8,0.8,3.3,2.3,4.2
	c1.5,1,3.5,1.5,5.7,1.5c2.2,0,4.1-0.5,5.7-1.5s2.3-2.4,2.3-4.3c0-1.8-0.8-3.2-2.3-4.2c-1.5-1-3.4-1.5-5.7-1.5
	c-2.3,0-4.2,0.5-5.7,1.5C310.4,530.9,309.6,532.3,309.6,534.1z M300.7,533.9c0-1.6,0.7-3.2,2.1-4.7c1.4-1.5,3.4-2.7,6-3.5
	c2.6-0.8,5.5-1.2,8.7-1.2c5,0,9,0.9,12.2,2.7s4.8,4.1,4.8,6.9c0,2.8-1.6,5.2-4.8,7c-3.2,1.8-7.2,2.8-12.1,2.8c-3,0-5.9-0.4-8.6-1.2
	c-2.7-0.8-4.8-1.9-6.2-3.4C301.4,537.8,300.7,536,300.7,533.9z M296.2,530.3l-8.5,0.9c-0.3-1-0.9-1.7-2-2.2c-1-0.5-2.3-0.7-4-0.7
	c-2.2,0-3.9,0.4-5.2,1.3c-1.3,0.8-1.9,2.3-1.9,4.2c0,2.2,0.6,3.8,2,4.7s3.1,1.4,5.2,1.4c1.6,0,3-0.3,4-0.8c1-0.5,1.8-1.4,2.2-2.8
	l8.5,0.8c-0.9,2.2-2.6,3.9-5.1,5s-5.9,1.7-10.1,1.7c-4.8,0-8.6-0.9-11.5-2.6c-2.9-1.7-4.3-4.1-4.3-7.1c0-3.1,1.4-5.5,4.3-7.2
	c2.9-1.7,6.7-2.6,11.6-2.6c4,0,7.1,0.5,9.5,1.5C293.4,526.8,295.1,528.3,296.2,530.3z"/>
<path class="st7" d="M696,543.4v-4.9h8.7v4.9H696z M689.5,530.3l-8.5,0.9c-0.3-1-0.9-1.7-2-2.2c-1-0.5-2.3-0.7-4-0.7
	c-2.2,0-3.9,0.4-5.2,1.3c-1.3,0.8-1.9,2.3-1.9,4.2c0,2.2,0.7,3.8,2,4.7s3.1,1.4,5.2,1.4c1.6,0,3-0.3,4-0.8c1-0.5,1.8-1.4,2.2-2.8
	l8.5,0.8c-0.9,2.2-2.6,3.9-5.1,5s-5.9,1.7-10.1,1.7c-4.8,0-8.6-0.9-11.5-2.6c-2.9-1.7-4.3-4.1-4.3-7.1c0-3.1,1.4-5.5,4.3-7.2
	c2.9-1.7,6.7-2.6,11.6-2.6c4,0,7.2,0.5,9.5,1.5C686.8,526.8,688.5,528.3,689.5,530.3z M652.1,543.4h-8.7v-9.5c0-2-0.2-3.3-0.6-3.9
	c-0.4-0.6-1-1-1.8-1.4s-1.8-0.5-3-0.5c-1.5,0-2.9,0.2-4.1,0.7c-1.2,0.5-2,1.1-2.5,1.8c-0.5,0.8-0.7,2.2-0.7,4.3v8.4h-8.7v-18.6h8
	v2.7c2.9-2.1,6.5-3.1,10.9-3.1c1.9,0,3.7,0.2,5.3,0.6c1.6,0.4,2.8,0.9,3.6,1.5c0.8,0.6,1.4,1.3,1.7,2.1c0.3,0.8,0.5,1.9,0.5,3.3
	L652.1,543.4L652.1,543.4z M604.7,543.4v-18.6h8.7v18.6H604.7z M604.7,522.3v-4.5h8.7v4.5H604.7z M555.5,533.7c0,2,0.7,3.4,2,4.3
	c1.3,0.9,3,1.4,5,1.4c2.1,0,3.9-0.5,5.3-1.4c1.5-0.9,2.2-2.3,2.2-4.2c0-1.9-0.7-3.3-2.1-4.3c-1.4-0.9-3.2-1.4-5.3-1.4
	c-2.1,0-3.8,0.5-5.1,1.4C556.2,530.5,555.5,531.8,555.5,533.7z M547.7,544.6l9.9,0.7c0.2,0.7,0.5,1.1,1.1,1.4
	c0.8,0.3,2.1,0.5,3.9,0.5c2.3,0,4-0.2,5.1-0.6c0.8-0.3,1.3-0.7,1.7-1.2c0.3-0.4,0.4-1.2,0.4-2.3l0-2.7c-2.6,2-5.9,3-9.9,3
	c-4.4,0-7.9-1.1-10.5-3.2c-2-1.7-3-3.7-3-6.2c0-3.1,1.3-5.5,4-7.1c2.6-1.6,5.9-2.5,9.9-2.5c4.1,0,7.4,1,10,3v-2.6h8.1v16.7
	c0,2.2-0.3,3.8-1,4.9c-0.6,1.1-1.5,1.9-2.7,2.5c-1.2,0.6-2.7,1.1-4.6,1.5c-1.9,0.3-4.4,0.5-7.3,0.5c-5.6,0-9.5-0.5-11.8-1.6
	c-2.3-1.1-3.5-2.5-3.5-4.1C547.7,545,547.7,544.8,547.7,544.6z M539.8,543.4h-8.7v-9.5c0-2-0.2-3.3-0.6-3.9c-0.4-0.6-1-1-1.8-1.4
	s-1.8-0.5-3-0.5c-1.5,0-2.9,0.2-4.1,0.7c-1.2,0.5-2,1.1-2.5,1.8c-0.5,0.8-0.7,2.2-0.7,4.3v8.4h-8.7v-18.6h8v2.7
	c2.9-2.1,6.5-3.1,10.9-3.1c1.9,0,3.7,0.2,5.3,0.6c1.6,0.4,2.8,0.9,3.6,1.5c0.8,0.6,1.4,1.3,1.7,2.1c0.3,0.8,0.5,1.9,0.5,3.3V543.4z
	 M492.4,543.4v-18.6h8.7v18.6H492.4z M492.4,522.3v-4.5h8.7v4.5H492.4z M486.3,524.8v3.9h-5.9v7.5c0,1.5,0,2.4,0.2,2.7
	c0.1,0.2,0.4,0.5,0.8,0.6c0.4,0.2,0.9,0.2,1.5,0.2c0.8,0,2-0.2,3.5-0.5l0.7,3.8c-2,0.5-4.3,0.7-6.8,0.7c-1.6,0-3-0.2-4.2-0.5
	s-2.2-0.7-2.8-1.2c-0.6-0.5-1-1.1-1.2-1.9c-0.2-0.6-0.3-1.7-0.3-3.5v-8.1h-4v-3.9h4v-3.7l8.7-2.9v6.6L486.3,524.8L486.3,524.8z
	 M453.8,543.4v-25.6h8.7v25.6H453.8z M436.8,543.4v-2.8c-1.2,1-2.8,1.8-4.7,2.4c-2,0.6-4,0.9-6.2,0.9c-2.2,0-4.2-0.3-5.9-0.8
	c-1.8-0.5-3-1.3-3.8-2.3c-0.8-1-1.2-2.4-1.2-4.1v-11.8h8.7v8.6c0,2.6,0.2,4.2,0.5,4.8s0.9,1.1,1.8,1.4c0.8,0.3,1.9,0.5,3.2,0.5
	c1.5,0,2.8-0.2,4-0.7s2-1,2.4-1.7c0.4-0.7,0.6-2.4,0.6-5v-7.8h8.7v18.6L436.8,543.4L436.8,543.4z M376.9,538.2l8.7-0.8
	c0.4,1,1.1,1.7,2.2,2.2c1.1,0.5,2.7,0.7,4.8,0.7c2.2,0,3.9-0.2,5.1-0.7c0.8-0.3,1.1-0.8,1.1-1.3c0-0.4-0.2-0.7-0.6-0.9
	c-0.4-0.2-1.4-0.5-2.9-0.7c-7-0.9-11.4-1.7-13.3-2.4c-2.6-1-3.9-2.4-3.9-4.2c0-1.6,1.1-3,3.4-4.1c2.2-1.1,5.7-1.7,10.4-1.7
	c4.5,0,7.8,0.4,10,1.2c2.2,0.8,3.7,2.1,4.5,3.7l-8.1,0.9c-0.4-0.7-1-1.3-2-1.7s-2.4-0.6-4.2-0.6c-2.3,0-3.9,0.2-4.9,0.5
	c-0.7,0.3-1,0.6-1,1c0,0.3,0.3,0.7,0.9,0.9c0.8,0.3,3.5,0.8,8.1,1.4c4.6,0.6,7.9,1.3,9.7,2.2c1.8,0.9,2.7,2.1,2.7,3.7
	c0,1.7-1.2,3.2-3.8,4.4c-2.5,1.2-6.2,1.8-11.2,1.8c-4.5,0-8-0.5-10.6-1.5C379.4,541.3,377.7,539.9,376.9,538.2z M371.2,543.4h-8.7
	v-9.5c0-2-0.2-3.3-0.6-3.9c-0.4-0.6-1-1-1.8-1.4s-1.9-0.5-3-0.5c-1.5,0-2.9,0.2-4.1,0.7c-1.2,0.5-2,1.1-2.5,1.8
	c-0.5,0.8-0.7,2.2-0.7,4.3v8.4h-8.7v-18.6h8v2.7c2.9-2.1,6.5-3.1,10.9-3.1c1.9,0,3.7,0.2,5.3,0.6c1.6,0.4,2.8,0.9,3.6,1.5
	c0.8,0.6,1.4,1.3,1.7,2.1c0.3,0.8,0.5,1.9,0.5,3.3L371.2,543.4L371.2,543.4z M309.6,534.1c0,1.8,0.8,3.3,2.3,4.2
	c1.5,1,3.5,1.5,5.7,1.5c2.2,0,4.1-0.5,5.7-1.5s2.3-2.4,2.3-4.3c0-1.8-0.8-3.2-2.3-4.2c-1.5-1-3.4-1.5-5.7-1.5
	c-2.3,0-4.2,0.5-5.7,1.5C310.4,530.9,309.6,532.3,309.6,534.1z M300.7,533.9c0-1.6,0.7-3.2,2.1-4.7c1.4-1.5,3.4-2.7,6-3.5
	c2.6-0.8,5.5-1.2,8.7-1.2c5,0,9,0.9,12.2,2.7s4.8,4.1,4.8,6.9c0,2.8-1.6,5.2-4.8,7c-3.2,1.8-7.2,2.8-12.1,2.8c-3,0-5.9-0.4-8.6-1.2
	c-2.7-0.8-4.8-1.9-6.2-3.4C301.4,537.8,300.7,536,300.7,533.9z M296.2,530.3l-8.5,0.9c-0.3-1-0.9-1.7-2-2.2c-1-0.5-2.3-0.7-4-0.7
	c-2.2,0-3.9,0.4-5.2,1.3c-1.3,0.8-1.9,2.3-1.9,4.2c0,2.2,0.6,3.8,2,4.7s3.1,1.4,5.2,1.4c1.6,0,3-0.3,4-0.8c1-0.5,1.8-1.4,2.2-2.8
	l8.5,0.8c-0.9,2.2-2.6,3.9-5.1,5s-5.9,1.7-10.1,1.7c-4.8,0-8.6-0.9-11.5-2.6c-2.9-1.7-4.3-4.1-4.3-7.1c0-3.1,1.4-5.5,4.3-7.2
	c2.9-1.7,6.7-2.6,11.6-2.6c4,0,7.1,0.5,9.5,1.5C293.4,526.8,295.1,528.3,296.2,530.3z"/>
</svg>
